<?xml version="1.0" encoding="UTF-8"?>
<svg class="" width="512px" height="512px" viewBox="0 0 44 60" xmlns="http://www.w3.org/2000/svg">
<g fill="none" fill-rule="evenodd">
<g transform="translate(-1)" fill="#ECEBF3" fill-rule="nonzero">
<path id="a" class="active-path" d="m28 8h-10c-0.55228 0-1 0.44772-1 1s0.44772 1 1 1h10c0.55228 0 1-0.44772 1-1s-0.44772-1-1-1z" data-old_color="#000000" data-original="#000000"/>
<path class="active-path" d="m12.053 52.855-3.4 1.7c-1.0162 0.50642-1.6569 1.5456-1.653 2.681v0.764c0 1.1046 0.89543 2 2 2h28c1.1046 0 2-0.89543 2-2v-0.764c0.0037331-1.1372-0.63924-2.1777-1.658-2.683l-3.395-1.7c6.034-4.696 11.053-15.297 11.053-23.853 0.12559-4.4617-1.744-8.7472-5.1-11.69-0.013-0.014-0.027-0.024-0.04-0.037-2.1082-1.8257-4.3924-3.4376-6.819-4.812 0.10786-1.0472 0.3986-2.0673 0.859-3.014 0.61824-1.3084 1.4729-2.4912 2.521-3.489 1.5613-0.21497 2.6884-1.6039 2.5773-3.176s-1.4223-2.7887-2.9983-2.782h-26c-1.575-0.004015-2.8837 1.2133-2.9934 2.7845-0.1097 1.5712 1.0171 2.9586 2.5774 3.1735 1.0482 0.99767 1.9029 2.1806 2.521 3.489 0.45956 0.94682 0.74929 1.967 0.856 3.014-2.4268 1.3742-4.711 2.9861-6.819 4.812-0.013 0.013-0.027 0.023-0.04 0.037-3.3567 2.9424-5.2271 7.228-5.102 11.69 0 8.556 5.019 19.157 11.053 23.855zm24.947 4.381 5.1e-6 0.764h-28l5.12e-6 -0.764c-0.0012129-0.37907 0.21328-0.72582 0.553-0.894l4.683-2.342h17.528l4.683 2.342c0.33972 0.16818 0.55421 0.51493 0.553 0.894zm-5.285-5.236h-17.43c-3.018-1.922-5.88-5.677-7.969-10h17.684c0.55228 0 1-0.44772 1-1s-0.44772-1-1-1h-18.572c-0.88099-2.1181-1.5438-4.3205-1.978-6.573 0.48644 0.35112 0.92366 0.76581 1.3 1.233 0.96248 1.4131 2.5412 2.2823 4.25 2.34 1.711-0.057005 3.2918-0.92804 4.254-2.344 0.924-1.056 1.507-1.656 2.736-1.656s1.821 0.6 2.747 1.659c0.96266 1.4145 2.5429 2.2844 4.253 2.341 1.7101-0.056634 3.2903-0.92646 4.253-2.341 0.927-1.059 1.511-1.659 2.747-1.659s1.821 0.6 2.747 1.659c0.92472 1.4582 2.5313 2.3418 4.258 2.3418s3.3333-0.88358 4.258-2.3418c0.37631-0.46664 0.81355-0.88067 1.3-1.231-0.43528 2.2523-1.099 4.4543-1.981 6.572h-12.572c-0.55228 0-1 0.44772-1 1s0.44772 1 1 1h11.684c-2.084 4.323-4.951 8.078-7.969 10zm-28.715-23c-0.014032-1.5037 0.20214-3.0007 0.641-4.439 0.40471 0.32923 0.77585 0.69769 1.108 1.1 0.96201 1.414 2.5417 2.2832 4.251 2.339 1.711-0.057005 3.2918-0.92804 4.254-2.344 0.924-1.056 1.507-1.656 2.736-1.656s1.821 0.6 2.747 1.659c0.96266 1.4145 2.5429 2.2844 4.253 2.341 1.7101-0.056634 3.2903-0.92646 4.253-2.341 0.927-1.059 1.511-1.659 2.747-1.659s1.821 0.6 2.747 1.659c0.92481 1.4577 2.5311 2.341 4.2575 2.341s3.3327-0.88325 4.2575-2.341c0.33145-0.40261 0.70229-0.77111 1.107-1.1 0.43907 1.4389 0.65524 2.9366 0.641 4.441 0 0.7-0.05 1.412-0.121 2.137-1.2566 0.36971-2.3566 1.1428-3.13 2.2-0.813 0.93-1.456 1.663-2.759 1.663-1.236 0-1.82-0.6-2.747-1.659-0.92293-1.4575-2.5279-2.3408-4.253-2.3408s-3.3301 0.88337-4.253 2.3408c-0.926 1.059-1.51 1.659-2.747 1.659s-1.82-0.6-2.747-1.659c-0.96266-1.4145-2.5429-2.2844-4.253-2.341-1.7068 0.056976-3.2834 0.92669-4.242 2.34-0.927 1.06-1.512 1.66-2.748 1.66s-1.821-0.6-2.748-1.658c-0.77353-1.0575-1.8739-1.8307-3.131-2.2-0.071-0.73-0.121-1.442-0.121-2.142zm4.188-10h10.812c0.55228 0 1-0.44772 1-1s-0.44772-1-1-1h-8.379c1.432-1.037 3.011-2.005 4.658-3h17.442c1.647 0.995 3.226 1.963 4.658 3h-14.379c-0.55228 0-1 0.44772-1 1s0.44772 1 1 1h16.812c1.1303 1.0533 2.0731 2.2913 2.788 3.661-0.69998 0.46039-1.3238 1.0272-1.849 1.68-0.932 1.059-1.517 1.659-2.761 1.659s-1.82-0.6-2.747-1.659c-0.92293-1.4575-2.5279-2.3408-4.253-2.3408s-3.3301 0.88337-4.253 2.3408c-0.926 1.059-1.51 1.659-2.747 1.659s-1.82-0.6-2.747-1.659c-0.96266-1.4145-2.5429-2.2844-4.253-2.341-1.7068 0.056976-3.2834 0.92669-4.242 2.34-0.927 1.06-1.512 1.66-2.748 1.66s-1.82-0.6-2.746-1.656c-0.52491-0.65425-1.1492-1.2221-1.85-1.683 0.71369-1.3694 1.6551-2.6074 2.784-3.661zm24.912-10.447c-0.52758 1.0852-0.87319 2.2497-1.023 3.447h-16.154c-0.14981-1.1973-0.49542-2.3618-1.023-3.447-0.4481-0.9-0.98155-1.7549-1.593-2.553h21.386c-0.61145 0.79808-1.1449 1.653-1.593 2.553zm-22.1-6.553h26c0.55228 0 1 0.44772 1 1s-0.44772 1-1 1h-26c-0.55228 0-1-0.44772-1-1s0.44772-1 1-1z" data-old_color="#000000" data-original="#000000"/>
</g>
</g>
</svg>
