<?xml version="1.0" encoding="UTF-8"?>
<svg enable-background="new 0 0 511.998 511.998" version="1.1" viewBox="0 0 512 512" xml:space="preserve" xmlns="http://www.w3.org/2000/svg">
	
		<g fill="#ECEBF3">
			<path class="active-path" d="m502 30.598h-152c-5.523 0-10 4.477-10 10v40.003c0 5.523 4.477 10 10 10h20.001v74.794h-190c-5.522 0-10 4.477-10 10v40.002c0 5.523 4.478 10 10 10h20.001v74.796h-190c-5.523 0-10 4.477-10 10v40.001c0 5.523 4.477 10 10 10h13.996v111.21c0 5.523 4.477 10 10 10h181.76c2.256 0 4.445-0.763 6.213-2.165l286.24-226.97c2.392-1.896 3.786-4.782 3.786-7.835v-203.83c0-5.523-4.476-10-10-10zm-312 174.8v-20.002h180v20.002h-180zm-170 134.8v-20.001h180v20.001h-180zm472-230.32h-41.035c-5.523 0-10 4.477-10 10s4.477 10 10 10h41.035v109.72l-279.73 221.81h-168.28v-62.253h41.036c5.522 0 10-4.477 10-10s-4.478-10-10-10h-41.036v-18.953h166c5.523 0 10-4.477 10-10v-124.8h160c5.523 0 10-4.477 10-10v-124.8h102v19.278zm0-39.278h-132v-20.003h132v20.003z" data-old_color="#000000" data-original="#000000"/>
			<path class="active-path" d="m114 379.14h-0.236c-5.524 0-10 4.477-10 10s4.476 10 10 10h0.236c5.522 0 10-4.477 10-10s-4.478-10-10-10z" data-old_color="#000000" data-original="#000000"/>
			<path class="active-path" d="m422 129.88h0.235c5.522 0 10-4.477 10-10s-4.478-10-10-10h-0.235c-5.523 0-10 4.477-10 10s4.477 10 10 10z" data-old_color="#000000" data-original="#000000"/>
		</g>
	
 </svg>
