<?xml version="1.0" encoding="UTF-8"?>
<svg width="512px" height="512px" viewBox="-42 0 512 512" xmlns="http://www.w3.org/2000/svg">
<g fill="#ECEBF3">
<path class="active-path" d="m210.35 246.63c33.883 0 63.219-12.152 87.195-36.129 23.969-23.973 36.125-53.305 36.125-87.191 0-33.875-12.152-63.211-36.129-87.191-23.977-23.969-53.312-36.121-87.191-36.121-33.887 0-63.219 12.152-87.191 36.125s-36.129 53.309-36.129 87.188c0 33.887 12.156 63.223 36.129 87.195 23.98 23.969 53.316 36.125 87.191 36.125zm-65.973-189.29c18.395-18.395 39.973-27.336 65.973-27.336 25.996 0 47.578 8.9414 65.977 27.336 18.395 18.398 27.34 39.98 27.34 65.973 0 26-8.9453 47.578-27.34 65.977-18.398 18.398-39.98 27.34-65.977 27.34-25.992 0-47.57-8.9453-65.973-27.34-18.398-18.395-27.344-39.977-27.344-65.977 0-25.992 8.9453-47.574 27.344-65.973z" data-old_color="#000000" data-original="#000000"/>
<path class="active-path" d="m426.13 393.7c-0.69141-9.9766-2.0898-20.859-4.1484-32.352-2.0781-11.578-4.7539-22.523-7.957-32.527-3.3125-10.34-7.8086-20.551-13.375-30.336-5.7695-10.156-12.551-19-20.16-26.277-7.957-7.6133-17.699-13.734-28.965-18.199-11.227-4.4414-23.668-6.6914-36.977-6.6914-5.2266 0-10.281 2.1445-20.043 8.5-6.0078 3.918-13.035 8.4492-20.879 13.461-6.707 4.2734-15.793 8.2773-27.016 11.902-10.949 3.543-22.066 5.3398-33.043 5.3398-10.969 0-22.086-1.7969-33.043-5.3398-11.211-3.6211-20.301-7.625-26.996-11.898-7.7695-4.9648-14.801-9.4961-20.898-13.469-9.7539-6.3555-14.809-8.5-20.035-8.5-13.312 0-25.75 2.2539-36.973 6.6992-11.258 4.457-21.004 10.578-28.969 18.199-7.6094 7.2812-14.391 16.121-20.156 26.273-5.5586 9.7852-10.059 19.992-13.371 30.34-3.1992 10.004-5.875 20.945-7.9531 32.523-2.0625 11.477-3.457 22.363-4.1484 32.363-0.67969 9.7773-1.0234 19.953-1.0234 30.234 0 26.727 8.4961 48.363 25.25 64.32 16.547 15.746 38.438 23.73 65.066 23.73h246.53c26.621 0 48.512-7.9844 65.062-23.73 16.758-15.945 25.254-37.59 25.254-64.324-0.003906-10.316-0.35156-20.492-1.0352-30.242zm-44.906 72.828c-10.934 10.406-25.449 15.465-44.379 15.465h-246.53c-18.934 0-33.449-5.0586-44.379-15.461-10.723-10.207-15.934-24.141-15.934-42.586 0-9.5938 0.31641-19.066 0.94922-28.16 0.61719-8.9219 1.8789-18.723 3.75-29.137 1.8477-10.285 4.1992-19.938 6.9961-28.676 2.6836-8.3789 6.3438-16.676 10.883-24.668 4.332-7.6172 9.3164-14.152 14.816-19.418 5.1445-4.9258 11.629-8.957 19.27-11.98 7.0664-2.7969 15.008-4.3281 23.629-4.5586 1.0508 0.55859 2.9219 1.625 5.9531 3.6016 6.168 4.0195 13.277 8.6055 21.137 13.625 8.8594 5.6484 20.273 10.75 33.91 15.152 13.941 4.5078 28.16 6.7969 42.273 6.7969 14.113 0 28.336-2.2891 42.27-6.793 13.648-4.4102 25.059-9.5078 33.93-15.164 8.043-5.1406 14.953-9.5938 21.121-13.617 3.0312-1.9727 4.9023-3.043 5.9531-3.6016 8.625 0.23047 16.566 1.7617 23.637 4.5586 7.6367 3.0234 14.121 7.0586 19.266 11.98 5.5 5.2617 10.484 11.797 14.816 19.422 4.543 7.9883 8.207 16.289 10.887 24.66 2.8008 8.75 5.1562 18.398 7 28.676 1.8672 10.434 3.1328 20.238 3.75 29.145v0.007812c0.63672 9.0586 0.95703 18.527 0.96094 28.148-0.003906 18.449-5.2148 32.379-15.938 42.582z" data-old_color="#000000" data-original="#000000"/>
</g>
</svg>
