<?xml version="1.0" encoding="UTF-8"?>
<svg enable-background="new 0 0 512 512" version="1.1" viewBox="0 0 512 512" xml:space="preserve" xmlns="http://www.w3.org/2000/svg">
	
		<g fill="#ECEBF3">
			<path class="active-path" d="m501.38 277.87-64.733-49.242c-2.921-2.223-6.562-3.447-10.252-3.447-9.263 0-16.799 7.444-16.799 16.593v11.902h-153.87c-4.144 0-7.503 3.358-7.503 7.5s3.359 7.5 7.503 7.5h35.388v60.985h-57.164c2.616-9.709 3.965-19.824 3.965-30.15 0-31.35-12.422-60.803-34.978-82.932-6.914-6.784-14.466-12.556-22.474-17.325 5.987-10.346 9.121-21.973 9.121-34.01 0-38.179-31.683-69.24-70.627-69.24s-70.626 31.061-70.626 69.24c0 11.929 3.083 23.465 8.97 33.748-8.045 4.76-15.636 10.544-22.569 17.346-22.396 21.973-34.731 51.268-34.731 82.487 0 31.35 12.422 60.804 34.978 82.934 23.266 22.827 53.812 34.245 84.329 34.245 30.398 0 60.769-11.332 83.876-34.004 11.081-10.872 19.7-23.536 25.579-37.339h97.038c4.144 0 7.503-3.358 7.503-7.5s-3.359-7.5-7.503-7.5h-19.68v-60.985h67.216v60.985h-18.403c-4.144 0-7.503 3.358-7.503 7.5s3.359 7.5 7.503 7.5h54.658v11.902c0 9.15 7.537 16.594 16.799 16.594 3.69 0 7.332-1.225 10.252-3.447l64.734-49.243c6.652-5.062 10.624-13.024 10.624-21.298s-3.971-16.237-10.625-21.299zm-382.42-166.86c30.669 0 55.62 24.331 55.62 54.239 0 9.625-2.576 18.92-7.489 27.151-5.329-2.321-10.792-4.24-16.35-5.758v-26.113c0-9.389-7.723-17.028-17.215-17.028h-29.133c-9.492 0-17.215 7.639-17.215 17.028v25.931c-5.604 1.499-11.109 3.404-16.48 5.721-4.827-8.178-7.359-17.397-7.359-26.932 1e-3 -29.908 24.952-54.239 55.621-54.239zm16.775 49.519v23.015c-5.676-0.802-11.402-1.204-17.125-1.204-5.491 0-10.978 0.369-16.425 1.108v-22.919c0-1.118 0.991-2.027 2.208-2.027h29.134c1.218-1e-3 2.208 0.908 2.208 2.027zm56.939 210.77c-20.213 19.832-46.769 29.741-73.364 29.739-26.706-3e-3 -53.452-9.999-73.818-29.98-19.657-19.287-30.483-44.939-30.483-72.229 0-27.159 10.739-52.652 30.236-71.782 20.213-19.831 46.769-29.739 73.364-29.739 26.707 0 53.452 9.999 73.818 29.98 19.657 19.286 30.483 44.937 30.483 72.227 1e-3 27.16-10.737 52.653-30.236 71.784zm299.62-62.766-64.736 49.244c-0.323 0.247-0.736 0.383-1.161 0.383-0.989 0-1.793-0.715-1.793-1.593v-19.402c0-4.143-3.359-7.5-7.503-7.5h-28.752v-60.985h28.752c4.144 0 7.503-3.358 7.503-7.5v-19.402c0-0.878 0.804-1.592 1.793-1.592 0.425 0 0.838 0.136 1.164 0.384l64.732 49.242c2.992 2.276 4.707 5.689 4.707 9.362 0 3.672-1.715 7.084-4.706 9.359z" data-old_color="#000000" data-original="#000000"/>
			<path class="active-path" d="m181.23 245.86c-3.335 2.459-4.043 7.156-1.582 10.489 21.657 29.332 18.47 69.172-7.578 94.729-29.186 28.634-76.757 28.554-106.04-0.179-14.151-13.884-21.944-32.347-21.944-51.989 0-19.546 7.729-37.893 21.763-51.661 25.845-25.359 67.641-28.472 97.224-7.242 3.366 2.413 8.054 1.644 10.471-1.719 2.417-3.365 1.647-8.051-1.719-10.467-17.127-12.291-38.272-18.242-59.535-16.76-21.507 1.499-41.734 10.55-56.953 25.482-16.933 16.612-26.258 38.76-26.258 62.366 0 23.701 9.389 45.967 26.439 62.694 17.575 17.244 40.647 25.868 63.701 25.867 22.963-1e-3 45.909-8.562 63.366-25.689 15.2-14.914 24.439-34.747 26.015-55.85 1.558-20.87-4.434-41.644-16.874-58.493-2.461-3.332-7.159-4.04-10.491-1.578z" data-old_color="#000000" data-original="#000000"/>
			<path class="active-path" d="m163.16 255.92c-2.898-2.961-7.648-3.013-10.611-0.115l-24.209 23.677c-2.848-1.322-6.028-2.063-9.38-2.063-12.169 0-22.07 9.756-22.07 21.748s9.901 21.748 22.07 21.748 22.07-9.756 22.07-21.748c0-3.255-0.729-6.345-2.036-9.12l24.049-23.522c2.963-2.895 3.015-7.643 0.117-10.605zm-44.2 49.995c-3.895 0-7.064-3.027-7.064-6.747 0-3.721 3.169-6.747 7.064-6.747s7.064 3.026 7.064 6.747c0 3.72-3.169 6.747-7.064 6.747z" data-old_color="#000000" data-original="#000000"/>
		</g>
	
 </svg>
